<svg id="Layer_5" enable-background="new 0 0 64 64" height="512" viewBox="0 0 64 64" width="512" xmlns="http://www.w3.org/2000/svg" xmlns:xlink="http://www.w3.org/1999/xlink"><linearGradient id="SVGID_1_" gradientUnits="userSpaceOnUse" x1="32" x2="32" y1="63" y2="1"><stop offset="0" stop-color="#9f2fff"/><stop offset="1" stop-color="#0bb1d3"/></linearGradient><path d="m27 39h-2v-2h2zm-4-2h-2v2h2zm-6 2h2v-2h-2zm10 2h-2v2h2zm-4 0h-2v2h2zm-6 2h2v-2h-2zm10 2h-2v2h2zm-4 0h-2v2h2zm-6 2h2v-2h-2zm-6-2h-2v2h2zm0-4h-2v2h2zm32-18h-18v-6h18zm-2-4h-14v2h14zm12 4h2v-2h-2zm4 0h2v-2h-2zm-4 4h2v-2h-2zm4 0h2v-2h-2zm-4 4h2v-2h-2zm4 0h2v-2h-2zm-4 4h2v-2h-2zm4 0h2v-2h-2zm6-25v3h-2v4h2v29c0 4.525-2.614 8.27-6 8.897v6.103h6v2h-62v-1c0-2.785 1.639-5.188 4-6.315v-18.685h8v-4h8v-20h2v-8h3v-4h16v4h3v8h2v20.282c.626 1.511 1.287 3.007 2 4.48v-20.762h2v-4h-2v-3c0-3.859 3.141-7 7-7s7 3.141 7 7zm-10 7h2v-4h-2zm-1.799 29c-2.71-4.44-5.024-9.144-6.892-14h-.619c-1.867 4.856-4.182 9.56-6.892 14h6.202v-.586l-2.707-2.707 1.414-1.414 1.293 1.293v-4.586h2v2.132l1.445-.964 1.109 1.664-2.554 1.703v3.465zm-23.201-41h12v-2h-12zm-3 8h2v-4h2v4h2v-4h2v4h2v-4h2v4h2v-4h2v4h2v-6h-18zm-2 20h8v15c3.104 0 5.833 2.095 6.703 5.007 2.076-.112 3.961.718 5.297 2.093v-7.1h-9.804l1.428-2.285c2.902-4.643 5.351-9.594 7.297-14.715h-16.921v-6h18v5h2v-15h-22zm4-6v2h14v-2zm-12 22c2.798 0 5.302 1.678 6.404 4.186.93-.219 1.903-.245 2.853-.069.645-2.334 2.457-4.13 4.743-4.809v-13.308h-14zm-8 6.08c.328-.047.66-.08 1-.08h.071c.224-1.559.967-2.949 2.043-4h-1.114v-2h2v1.264c.604-.423 1.277-.753 2-.969v-10.295h-6zm-3.899 5.92h39.899v-1c0-2.757-2.243-5-5-5-.287 0-.579.028-.896.085l-1.014.186-.154-1.021c-.364-2.423-2.486-4.25-4.936-4.25-2.564 0-4.701 1.92-4.971 4.467l-.134 1.268-1.199-.433c-1.174-.422-2.411-.395-3.541.055l-1.041.416-.294-1.083c-.59-2.172-2.572-3.69-4.82-3.69-2.757 0-5 2.243-5 5v1.185l-1.163-.108c-.303-.052-.577-.077-.837-.077-2.415 0-4.435 1.721-4.899 4zm51.899 0v-6.101c-2.855-.528-5.188-3.268-5.825-6.899h-4.175v12 1zm6-15c0-3.859-2.243-7-5-7-1.84 0-3.524 1.451-4.395 3.716.574 1.01 1.156 2.015 1.771 2.999l1.428 2.285h-3.59c.622 2.914 2.555 5 4.787 5 2.756 0 4.999-3.141 4.999-7zm0-6.286v-20.714h-10v20.718c1.29-1.697 3.07-2.718 5-2.718 1.958 0 3.728 1.042 5 2.714zm-2-26.714h-2v4h2zm2-3c0-2.757-2.243-5-5-5s-5 2.243-5 5v1h10z" fill="url(#SVGID_1_)"/></svg>